# Blender v2.79 (sub 0) OBJ File: 'Tappo colla.blend'
# www.blender.org
mtllib Tappo colla.mtl
o Cylinder.001_Cylinder.004
v -0.762079 4.454360 -0.412839
v -1.074394 4.454360 -0.285008
v -1.752624 4.454360 0.023601
v -1.074394 4.454360 0.332210
v -0.762079 4.454360 0.460040
v -0.449764 4.454360 0.332210
v 0.214552 4.454360 0.023601
v -0.449764 4.454360 -0.285008
v -0.762079 6.979351 -0.027584
v -0.762079 4.334906 -0.149863
v 0.229250 4.334906 -0.099056
v -1.753408 4.334906 -0.099056
v -0.762079 6.979351 -0.159959
v -0.893434 6.979351 -0.106196
v -0.947843 6.979351 0.023601
v -0.893434 6.979351 0.153397
v -0.762079 6.979351 0.207161
v -0.630724 6.979351 0.153397
v -0.576315 6.979351 0.023601
v -0.630724 6.979351 -0.106196
v -0.762079 4.454360 -0.598475
v -1.525397 4.454360 -0.416273
v -1.841573 4.454360 0.023601
v -1.525397 4.454360 0.463474
v -0.762079 4.454360 0.645676
v 0.001239 4.454360 0.463474
v 0.317415 4.454360 0.023601
v 0.001239 4.454360 -0.416273
v -0.762079 4.334906 -0.598475
v -1.525397 4.334906 -0.416273
v -1.841573 4.334906 0.023601
v -1.525397 4.334906 0.463474
v -0.762079 4.334906 0.645676
v 0.001239 4.334906 0.463474
v 0.317415 4.334906 0.023601
v 0.001239 4.334906 -0.416273
v 0.229250 4.454360 -0.099056
v -0.762079 4.334906 0.023601
v -0.762079 6.979351 0.023601
v -1.753408 4.454360 -0.099056
v -0.591487 6.979351 -0.012593
v -0.932671 6.979351 -0.012592
v 0.178479 4.454360 -0.062454
v -1.716552 4.454360 -0.062454
v -1.716954 4.454360 0.108695
v 0.178882 4.454360 0.108695
v -0.932841 6.979351 0.059390
v -0.591317 6.979351 0.059390
v -1.754392 4.454360 0.144889
v 0.230234 4.454360 0.144889
v -1.754392 4.334906 0.144889
v 0.230234 4.334906 0.144889
v -0.762079 4.334906 0.195129
v -0.762079 6.979351 0.074215
v -0.999692 6.259289 -0.026812
v -0.524467 6.259289 -0.026812
v -0.945039 6.259289 0.204390
v -0.579119 6.259289 0.204390
v -0.579119 6.259289 -0.157188
v -0.945039 6.259289 -0.157189
v -0.762079 6.259289 -0.232074
v -0.503335 6.259289 0.023601
v -0.762079 6.259289 0.279275
v -1.020824 6.259289 0.023601
v -0.999928 6.259289 0.073451
v -0.524231 6.259289 0.073451
v -0.967374 5.947646 0.226460
v -0.556784 5.947646 0.226460
v -0.556784 5.947646 -0.179258
v -0.967374 5.947646 -0.179258
v -1.577563 5.947646 -0.032966
v 0.039491 5.947646 -0.032966
v -0.762079 5.947646 -0.263285
v 0.063203 5.947646 0.023601
v -0.762079 5.947646 0.310487
v -1.601275 5.947646 0.023601
v -1.577827 5.947646 0.079536
v 0.039756 5.947646 0.079536
v -0.939078 6.910521 -0.013952
v -0.585080 6.910521 -0.013952
v -0.762079 6.910521 -0.166852
v -0.569339 6.910521 0.023601
v -0.762079 6.910521 0.214054
v -0.954819 6.910521 0.023601
v -0.939253 6.910521 0.060734
v -0.584905 6.910521 0.060734
v -0.898367 6.910521 0.158271
v -0.625791 6.910521 0.158271
v -0.625791 6.910521 -0.111070
v -0.898367 6.910521 -0.111070
v -0.942772 6.290922 0.202150
v -0.581386 6.290922 0.202150
v -0.581386 6.290922 -0.154948
v -0.942772 6.290922 -0.154948
v -0.996748 6.290922 -0.026187
v -0.527411 6.290922 -0.026187
v -0.762079 6.290922 -0.228906
v -0.506541 6.290922 0.023601
v -0.762079 6.290922 0.276107
v -1.017617 6.290922 0.023601
v -0.996980 6.290922 0.072833
v -0.527178 6.290922 0.072833
v 0.317415 4.339172 0.023601
v 0.001239 4.339172 -0.416273
v -0.762079 4.339172 0.645676
v 0.001239 4.339172 0.463474
v -1.841573 4.339172 0.023601
v -1.525397 4.339172 0.463474
v -0.762079 4.339172 -0.598475
v -1.525397 4.339172 -0.416273
v 0.229250 4.339172 -0.099056
v -1.753408 4.339172 -0.099056
v 0.230234 4.339172 0.144889
v -1.754392 4.339172 0.144889
v -1.071880 4.489438 0.329726
v -0.452278 4.489438 0.329726
v -0.452278 4.489438 -0.282524
v -1.071880 4.489438 -0.282524
v -1.713287 4.489438 -0.061761
v 0.175215 4.489438 -0.061761
v -0.762079 4.489438 -0.409325
v 0.210997 4.489438 0.023601
v -0.762079 4.489438 0.456527
v -1.749069 4.489438 0.023601
v -1.713686 4.489438 0.108010
v 0.175613 4.489438 0.108010
v -1.554604 5.960027 -0.032721
v 0.017085 5.960027 -0.032721
v -0.762079 5.960027 -0.262045
v 0.040694 5.960027 0.023601
v -0.762079 5.960027 0.309247
v -1.578214 5.960027 0.023601
v -1.554868 5.960027 0.079294
v 0.017349 5.960027 0.079294
v -0.966487 5.960027 0.225583
v -0.557672 5.960027 0.225583
v -0.557672 5.960027 -0.178381
v -0.966487 5.960027 -0.178381
v -1.025529 6.245356 -0.027087
v -0.499252 6.245356 -0.027087
v -0.762079 6.245355 -0.233469
v -0.478005 6.245355 0.023601
v -0.762079 6.245355 0.280671
v -1.046776 6.245355 0.023601
v -1.025766 6.245356 0.073723
v -0.499015 6.245355 0.073723
v -0.946038 6.245355 0.205377
v -0.578120 6.245355 0.205377
v -0.578120 6.245355 -0.158175
v -0.946038 6.245355 -0.158175
vn 0.8120 0.0000 -0.5837
vn -0.8120 0.0000 -0.5837
vn 0.0000 -1.0000 0.0000
vn 0.0000 1.0000 0.0000
vn 0.3772 0.0923 -0.9215
vn 0.9182 0.0931 0.3849
vn -0.3772 0.0923 0.9215
vn -0.9182 0.0931 -0.3849
vn 0.9182 0.0931 -0.3849
vn 0.3772 0.0923 0.9215
vn -0.9182 0.0931 0.3849
vn -0.3772 0.0923 -0.9215
vn 0.2322 0.0000 0.9727
vn -0.8120 0.0000 0.5837
vn -0.2322 0.0000 -0.9727
vn 0.2322 0.0000 -0.9727
vn 0.8120 0.0000 0.5837
vn -0.2322 0.0000 0.9727
vn 0.6759 0.6514 0.3449
vn -0.4640 0.8642 0.1945
vn -0.6688 0.6596 -0.3431
vn 0.4724 0.8588 -0.1980
vn -0.6688 0.6596 0.3429
vn 0.6758 0.6513 -0.3451
vn -0.4640 0.8642 -0.1945
vn 0.4724 0.8588 0.1980
vn 0.2867 0.0669 -0.9557
vn -0.2818 0.0665 0.9572
vn -0.2808 0.0665 -0.9575
vn 0.2876 0.0669 0.9554
vn -0.9183 0.0931 -0.3849
vn 0.9183 0.0931 -0.3849
vn -0.9183 0.0931 0.3849
vn 0.3332 0.0699 0.9403
vn -0.3257 0.0695 -0.9429
vn -0.3267 0.0695 0.9426
vn 0.3321 0.0699 -0.9407
vn 0.2335 0.2620 -0.9364
vn -0.2292 0.2631 0.9372
vn -0.2284 0.2624 -0.9375
vn 0.2343 0.2627 0.9360
vn 0.3609 0.3781 -0.8525
vn -0.3552 0.3806 0.8538
vn -0.3542 0.3798 -0.8545
vn 0.3619 0.3789 0.8517
usemtl None
s off
f 103//1 35//1 11//1 111//1
f 110//2 30//2 12//2 112//2
f 30//3 29//3 10//3 12//3
f 35//3 38//3 10//3 11//3
f 2//4 22//4 40//4 44//4
f 7//4 27//4 37//4 43//4
f 14//4 42//4 9//4 13//4
f 19//4 41//4 9//4 39//4
f 89//5 81//5 13//5 20//5
f 86//6 82//6 19//6 48//6
f 87//7 83//7 17//7 16//7
f 79//8 84//8 15//8 42//8
f 80//9 89//9 20//9 41//9
f 83//10 88//10 18//10 17//10
f 85//11 87//11 16//11 47//11
f 81//12 90//12 14//12 13//12
f 111//1 11//1 36//1 104//1
f 105//13 33//13 34//13 106//13
f 114//14 51//14 32//14 108//14
f 109//15 29//15 30//15 110//15
f 104//16 36//16 29//16 109//16
f 113//17 52//17 35//17 103//17
f 108//18 32//18 33//18 105//18
f 112//2 12//2 31//2 107//2
f 12//3 10//3 38//3 31//3
f 11//3 10//3 29//3 36//3
f 4//4 24//4 25//4 5//4
f 51//3 31//3 38//3 53//3
f 1//4 21//4 22//4 2//4
f 44//4 40//4 23//4 3//4
f 45//4 49//4 24//4 4//4
f 8//4 28//4 21//4 1//4
f 53//3 38//3 35//3 52//3
f 43//4 37//4 28//4 8//4
f 46//4 50//4 27//4 7//4
f 5//4 25//4 26//4 6//4
f 82//9 80//9 41//9 19//9
f 48//4 19//4 39//4 54//4
f 47//4 54//4 39//4 15//4
f 42//4 15//4 39//4 9//4
f 90//8 79//8 42//8 14//8
f 41//4 20//4 13//4 9//4
f 16//4 17//4 54//4 47//4
f 18//4 48//4 54//4 17//4
f 6//4 26//4 50//4 46//4
f 33//3 53//3 52//3 34//3
f 3//4 23//4 49//4 45//4
f 32//3 51//3 53//3 33//3
f 106//17 34//17 52//17 113//17
f 107//14 31//14 51//14 114//14
f 84//11 85//11 47//11 15//11
f 88//6 86//6 48//6 18//6
f 148//19 146//19 66//19 58//19
f 144//20 145//20 65//20 64//20
f 150//21 139//21 55//21 60//21
f 142//22 140//22 56//22 62//22
f 141//12 150//12 60//12 61//12
f 145//23 147//23 57//23 65//23
f 143//10 148//10 58//10 63//10
f 140//24 149//24 59//24 56//24
f 139//25 144//25 64//25 55//25
f 147//7 143//7 63//7 57//7
f 146//26 142//26 62//26 66//26
f 149//5 141//5 61//5 59//5
f 117//5 121//5 73//5 69//5
f 126//6 122//6 74//6 78//6
f 115//7 123//7 75//7 67//7
f 119//8 124//8 76//8 71//8
f 120//27 117//27 69//27 72//27
f 123//10 116//10 68//10 75//10
f 125//28 115//28 67//28 77//28
f 121//12 118//12 70//12 73//12
f 122//9 120//9 72//9 74//9
f 118//29 119//29 71//29 70//29
f 124//11 125//11 77//11 76//11
f 116//30 126//30 78//30 68//30
f 92//6 102//6 86//6 88//6
f 100//11 101//11 85//11 84//11
f 94//8 95//8 79//8 90//8
f 98//9 96//9 80//9 82//9
f 97//12 94//12 90//12 81//12
f 101//11 91//11 87//11 85//11
f 99//10 92//10 88//10 83//10
f 96//9 93//9 89//9 80//9
f 95//8 100//8 84//8 79//8
f 91//7 99//7 83//7 87//7
f 102//6 98//6 82//6 86//6
f 93//5 97//5 81//5 89//5
f 59//5 61//5 97//5 93//5
f 66//6 62//6 98//6 102//6
f 57//7 63//7 99//7 91//7
f 55//31 64//31 100//31 95//31
f 56//9 59//9 93//9 96//9
f 63//10 58//10 92//10 99//10
f 65//11 57//11 91//11 101//11
f 61//12 60//12 94//12 97//12
f 62//32 56//32 96//32 98//32
f 60//8 55//8 95//8 94//8
f 64//33 65//33 101//33 100//33
f 58//6 66//6 102//6 92//6
f 23//14 107//14 114//14 49//14
f 26//17 106//17 113//17 50//17
f 40//2 112//2 107//2 23//2
f 24//18 108//18 105//18 25//18
f 50//17 113//17 103//17 27//17
f 28//16 104//16 109//16 21//16
f 21//15 109//15 110//15 22//15
f 49//14 114//14 108//14 24//14
f 25//13 105//13 106//13 26//13
f 37//1 111//1 104//1 28//1
f 22//2 110//2 112//2 40//2
f 27//1 103//1 111//1 37//1
f 6//34 46//34 126//34 116//34
f 3//11 45//11 125//11 124//11
f 2//35 44//35 119//35 118//35
f 7//9 43//9 120//9 122//9
f 1//12 2//12 118//12 121//12
f 45//36 4//36 115//36 125//36
f 5//10 6//10 116//10 123//10
f 43//37 8//37 117//37 120//37
f 44//8 3//8 124//8 119//8
f 4//7 5//7 123//7 115//7
f 46//6 7//6 122//6 126//6
f 8//5 1//5 121//5 117//5
f 69//5 73//5 129//5 137//5
f 78//26 74//26 130//26 134//26
f 67//7 75//7 131//7 135//7
f 71//25 76//25 132//25 127//25
f 72//38 69//38 137//38 128//38
f 75//10 68//10 136//10 131//10
f 77//39 67//39 135//39 133//39
f 73//12 70//12 138//12 129//12
f 74//22 72//22 128//22 130//22
f 70//40 71//40 127//40 138//40
f 76//20 77//20 133//20 132//20
f 68//41 78//41 134//41 136//41
f 137//5 129//5 141//5 149//5
f 134//26 130//26 142//26 146//26
f 135//7 131//7 143//7 147//7
f 127//25 132//25 144//25 139//25
f 128//42 137//42 149//42 140//42
f 131//10 136//10 148//10 143//10
f 133//43 135//43 147//43 145//43
f 129//12 138//12 150//12 141//12
f 130//22 128//22 140//22 142//22
f 138//44 127//44 139//44 150//44
f 132//20 133//20 145//20 144//20
f 136//45 134//45 146//45 148//45
o Cylinder
v -0.000000 0.275606 -2.679717
v -1.894846 0.275606 -1.894846
v -2.679717 0.275606 0.000000
v -1.894846 0.275606 1.894846
v 0.000000 0.275606 2.679717
v 1.894846 0.275606 1.894846
v 2.679717 0.275606 -0.000000
v 1.894846 0.275606 -1.894846
v -0.000000 1.304508 -2.679717
v -1.894846 1.304508 -1.894846
v -2.679717 1.304508 0.000000
v -1.894846 1.304508 1.894846
v 0.000000 1.304508 2.679717
v 1.894846 1.304508 1.894846
v 2.679717 1.304508 -0.000000
v 1.894846 1.304508 -1.894846
v -0.749700 1.390417 -1.366192
v -1.485554 1.390417 -0.966044
v -1.790355 1.390417 0.000000
v -1.485554 1.390417 0.966044
v -0.749700 1.390417 1.366192
v -0.013846 1.390417 0.966044
v 0.290955 1.390417 -0.000000
v -0.013846 1.390417 -0.966044
v -0.749700 4.360440 -0.436439
v -1.062015 4.360440 -0.308609
v -1.191380 4.360440 0.000000
v -1.062015 4.360440 0.308609
v -0.749700 4.360440 0.436439
v -0.437385 4.360440 0.308609
v -0.308020 4.360440 -0.000000
v -0.437385 4.360440 -0.308609
v -1.810060 1.388513 0.000000
v -1.494622 1.388513 0.986623
v -0.733090 1.388513 -1.395295
v -1.494622 1.388513 -0.986623
v 0.028444 1.388513 -0.986623
v 0.028444 1.388513 0.986623
v 0.343881 1.388513 -0.000000
v -0.733089 1.388513 1.395295
v -1.857455 1.312356 1.809995
v -1.857455 1.312356 -1.809995
v 2.461490 1.312356 -0.000000
v -0.068489 1.312356 2.559719
v -2.598469 1.312356 0.000000
v -0.068489 1.312356 -2.559719
v 1.720476 1.312356 -1.809994
v 1.720476 1.312356 1.809994
v 2.679717 0.790057 -0.000000
v 1.894846 0.790057 -1.894846
v 0.000000 0.790057 2.679717
v 1.894846 0.790057 1.894846
v -2.679717 0.790057 0.000000
v -1.894846 0.790057 1.894846
v -0.000000 0.790057 -2.679717
v -1.894846 0.790057 -1.894846
vn 0.7071 0.0000 -0.7071
vn 0.5573 0.6172 -0.5554
vn 0.7855 0.6189 0.0000
vn 1.0000 0.0000 0.0000
vn 0.7071 0.0000 0.7071
vn 0.5573 0.6172 0.5554
vn 0.0036 0.6116 0.7911
vn 0.0000 0.0000 1.0000
vn -0.7071 0.0000 0.7071
vn -0.5611 0.6025 0.5676
vn -0.8013 0.5982 0.0000
vn -1.0000 0.0000 0.0000
vn -0.7071 0.0000 -0.7071
vn -0.5611 0.6025 -0.5676
vn 0.0036 0.6116 -0.7911
vn 0.0000 0.0000 -1.0000
vn -0.0728 0.9955 0.0603
vn -0.4204 0.8317 0.3625
vn -0.5966 0.8025 0.0000
vn -0.1050 0.9944 0.0000
vn -0.0728 0.9955 -0.0603
vn -0.4204 0.8317 -0.3625
vn -0.0138 0.8707 -0.4916
vn -0.0073 0.9978 -0.0652
vn 0.3896 0.8504 -0.3535
vn 0.0302 0.9991 -0.0309
vn 0.0371 0.9993 0.0000
vn 0.5618 0.8272 0.0000
vn 0.3896 0.8504 0.3535
vn 0.0302 0.9991 0.0309
vn -0.0073 0.9978 0.0652
vn -0.0138 0.8707 0.4916
vn 0.7411 0.2444 -0.6254
vn 0.9787 0.2054 0.0000
vn 0.7411 0.2444 0.6254
vn 0.0000 0.2901 0.9570
vn -0.7411 0.2444 0.6254
vn -0.9787 0.2054 0.0000
vn -0.7411 0.2444 -0.6254
vn 0.0000 0.2901 -0.9570
vn 0.0292 0.9990 0.0327
vn -0.0063 0.9978 0.0660
vn 0.0292 0.9990 -0.0327
vn 0.0368 0.9993 0.0000
vn -0.1024 0.9947 0.0000
vn -0.0688 0.9957 -0.0615
vn -0.0688 0.9957 0.0615
vn -0.0063 0.9978 -0.0660
usemtl None
s 1
f 200//46 166//47 165//48 199//49
f 202//50 164//51 163//52 201//53
f 204//54 162//55 161//56 203//57
f 206//58 160//59 159//60 205//61
f 205//61 159//60 166//47 200//46
f 199//49 165//48 164//51 202//50
f 201//53 163//52 162//55 204//54
f 203//57 161//56 160//59 206//58
f 184//62 170//63 169//64 183//65
f 186//66 168//67 167//68 185//69
f 185//69 167//68 174//70 187//71
f 189//72 173//73 172//74 188//75
f 190//76 171//77 170//63 184//62
f 183//65 169//64 168//67 186//66
f 187//71 174//70 173//73 189//72
f 174//70 182//78 181//79 173//73
f 172//74 180//80 179//81 171//77
f 170//63 178//82 177//83 169//64
f 168//67 176//84 175//85 167//68
f 167//68 175//85 182//78 174//70
f 173//73 181//79 180//80 172//74
f 171//77 179//81 178//82 170//63
f 169//64 177//83 176//84 168//67
f 188//75 172//74 171//77 190//76
f 198//86 188//75 190//76 194//87
f 197//88 187//71 189//72 193//89
f 195//90 183//65 186//66 192//91
f 194//87 190//76 184//62 191//92
f 193//89 189//72 188//75 198//86
f 196//93 185//69 187//71 197//88
f 192//91 186//66 185//69 196//93
f 191//92 184//62 183//65 195//90
f 162//55 191//92 195//90 161//56
f 160//59 192//91 196//93 159//60
f 159//60 196//93 197//88 166//47
f 165//48 193//89 198//86 164//51
f 163//52 194//87 191//92 162//55
f 161//56 195//90 192//91 160//59
f 166//47 197//88 193//89 165//48
f 164//51 198//86 194//87 163//52
f 153//57 203//57 206//58 152//58
f 155//53 201//53 204//54 154//54
f 157//49 199//49 202//50 156//50
f 151//61 205//61 200//46 158//46
f 152//58 206//58 205//61 151//61
f 154//54 204//54 203//57 153//57
f 156//50 202//50 201//53 155//53
f 158//46 200//46 199//49 157//49
